<svg width="11" height="11" viewBox="0 0 11 11" fill="none" xmlns="http://www.w3.org/2000/svg">
<path d="M5.11 0C2.28802 0 0 2.28885 0 5.11C0 7.9328 2.28802 10.22 5.11 10.22C7.93198 10.22 10.22 7.9328 10.22 5.11C10.22 2.28885 7.93198 0 5.11 0ZM5.11 2.26653C5.58795 2.26653 5.9754 2.65399 5.9754 3.13194C5.9754 3.60989 5.58795 3.99734 5.11 3.99734C4.63205 3.99734 4.2446 3.60989 4.2446 3.13194C4.2446 2.65399 4.63205 2.26653 5.11 2.26653ZM6.26387 7.50016C6.26387 7.63671 6.15316 7.74742 6.01661 7.74742H4.20339C4.06684 7.74742 3.95613 7.63671 3.95613 7.50016V7.00565C3.95613 6.8691 4.06684 6.75839 4.20339 6.75839H4.45065V5.43968H4.20339C4.06684 5.43968 3.95613 5.32897 3.95613 5.19242V4.6979C3.95613 4.56136 4.06684 4.45065 4.20339 4.45065H5.5221C5.65865 4.45065 5.76936 4.56136 5.76936 4.6979V6.75839H6.01661C6.15316 6.75839 6.26387 6.8691 6.26387 7.00565V7.50016Z" fill="#0066FF"/>
</svg>
