<svg width="11" height="10" viewBox="0 0 11 10" fill="none" xmlns="http://www.w3.org/2000/svg">
<path d="M2.1367 4.375H0.565058C0.304657 4.375 0.0935669 4.58486 0.0935669 4.84375V9.53125C0.0935669 9.79014 0.304657 10 0.565058 10H2.1367C2.3971 10 2.60819 9.79014 2.60819 9.53125V4.84375C2.60819 4.58486 2.3971 4.375 2.1367 4.375ZM1.35088 9.21875C1.09048 9.21875 0.879386 9.00889 0.879386 8.75C0.879386 8.49111 1.09048 8.28125 1.35088 8.28125C1.61128 8.28125 1.82237 8.49111 1.82237 8.75C1.82237 9.00889 1.61128 9.21875 1.35088 9.21875ZM7.63743 1.59086C7.63743 2.4193 7.12723 2.88398 6.98368 3.4375H8.98208C9.63818 3.4375 10.149 3.97941 10.152 4.57223C10.1537 4.92258 10.0038 5.29975 9.77014 5.53311L9.76798 5.53525C9.96121 5.99105 9.9298 6.62973 9.58512 7.08738C9.75566 7.59314 9.58376 8.21441 9.26329 8.54748C9.34772 8.89119 9.30737 9.18371 9.1425 9.4192C8.74154 9.99193 7.74776 10 6.90738 10L6.85149 9.99998C5.90287 9.99965 5.1265 9.65627 4.50268 9.38035C4.1892 9.2417 3.77931 9.07006 3.46832 9.06437C3.33984 9.06203 3.23684 8.95779 3.23684 8.83004V4.65484C3.23684 4.59234 3.26203 4.53236 3.30674 4.48842C4.08498 3.72389 4.41962 2.91445 5.05749 2.27922C5.34832 1.98953 5.45409 1.55195 5.55634 1.12879C5.64371 0.767441 5.82645 0 6.22295 0C6.69444 0 7.63743 0.15625 7.63743 1.59086Z" fill="white"/>
</svg>
