<svg width="98" height="98" viewBox="0 0 98 98" fill="none" xmlns="http://www.w3.org/2000/svg">
<path d="M67.1957 52.4757C72.0234 48.6983 75.5471 43.5184 77.2767 37.6565C79.0064 31.7947 78.8558 25.5425 76.8461 19.7697C74.8364 13.9969 71.0674 8.99067 66.0635 5.44738C61.0596 1.90409 55.0697 0 48.927 0C42.7843 0 36.7943 1.90409 31.7904 5.44738C26.7865 8.99067 23.0175 13.9969 21.0078 19.7697C18.9981 25.5425 18.8476 31.7947 20.5772 37.6565C22.3068 43.5184 25.8306 48.6983 30.6582 52.4757C22.3859 55.7717 15.1681 61.2384 9.77416 68.2931C4.38022 75.3478 1.01239 83.7261 0.029702 92.5346C-0.04143 93.1777 0.0155032 93.8284 0.19725 94.4496C0.378996 95.0709 0.681997 95.6504 1.08895 96.1552C1.91084 97.1746 3.10626 97.8276 4.41224 97.9704C5.71821 98.1133 7.02777 97.7344 8.05282 96.917C9.07787 96.0996 9.73444 94.9108 9.87809 93.612C10.9594 84.0389 15.5492 75.1976 22.7707 68.7774C29.9922 62.3571 39.3391 58.8079 49.0255 58.8079C58.7118 58.8079 68.0587 62.3571 75.2802 68.7774C82.5017 75.1976 87.0915 84.0389 88.1728 93.612C88.3067 94.8153 88.884 95.9266 89.7934 96.7315C90.7028 97.5364 91.8797 97.9778 93.097 97.9704H93.6387C94.9295 97.8227 96.1093 97.1736 96.9209 96.1646C97.7326 95.1556 98.1104 93.8684 97.9719 92.5835C96.9846 83.75 93.5986 75.3503 88.177 68.2848C82.7553 61.2192 75.5024 55.7542 67.1957 52.4757ZM48.927 48.9987C45.0313 48.9987 41.2231 47.8498 37.984 45.6974C34.7449 43.5449 32.2203 40.4856 30.7295 36.9062C29.2387 33.3269 28.8486 29.3882 29.6086 25.5884C30.3687 21.7886 32.2446 18.2982 34.9992 15.5587C37.7539 12.8191 41.2635 10.9535 45.0843 10.1977C48.9051 9.44182 52.8655 9.82975 56.4646 11.3124C60.0637 12.795 63.1399 15.3057 65.3042 18.5271C67.4686 21.7484 68.6237 25.5357 68.6237 29.41C68.6237 34.6052 66.5486 39.5877 62.8547 43.2613C59.1608 46.9349 54.1509 48.9987 48.927 48.9987Z" fill="#8086A2"/>
</svg>
