<svg width="18" height="15" viewBox="0 0 18 15" fill="none" xmlns="http://www.w3.org/2000/svg">
<path d="M17.55 5.85H12.15C11.9025 5.85 11.7 6.0525 11.7 6.3V7.2C11.7 7.4475 11.9025 7.65 12.15 7.65H17.55C17.7975 7.65 18 7.4475 18 7.2V6.3C18 6.0525 17.7975 5.85 17.55 5.85ZM6.3 7.2C8.28844 7.2 9.9 5.58844 9.9 3.6C9.9 1.61156 8.28844 0 6.3 0C4.31156 0 2.7 1.61156 2.7 3.6C2.7 5.58844 4.31156 7.2 6.3 7.2ZM8.82 8.1H8.35031C7.72594 8.38688 7.03125 8.55 6.3 8.55C5.56875 8.55 4.87687 8.38688 4.24969 8.1H3.78C1.69312 8.1 0 9.79313 0 11.88V13.05C0 13.7953 0.604688 14.4 1.35 14.4H11.25C11.9953 14.4 12.6 13.7953 12.6 13.05V11.88C12.6 9.79313 10.9069 8.1 8.82 8.1Z" fill="#F44234"/>
</svg>
