<svg width="20" height="21" viewBox="0 0 20 21" fill="none" xmlns="http://www.w3.org/2000/svg">
<path d="M18.935 12.4253L17.2142 11.4316C17.3879 10.4944 17.3879 9.53306 17.2142 8.59592L18.935 7.60222C19.1329 7.48912 19.2218 7.25483 19.1572 7.0367C18.7088 5.59867 17.9454 4.29798 16.9476 3.21541C16.7941 3.0498 16.5437 3.0094 16.3498 3.12251L14.629 4.1162C13.9059 3.49413 13.0738 3.01344 12.173 2.69837V0.715015C12.173 0.488807 12.0155 0.290876 11.7933 0.242403C10.3109 -0.0888293 8.79204 -0.0726717 7.38228 0.242403C7.16012 0.290876 7.00258 0.488807 7.00258 0.715015V2.70241C6.10583 3.02152 5.27371 3.50221 4.54661 4.12024L2.82986 3.12655C2.63193 3.01344 2.38552 3.0498 2.23203 3.21945C1.23429 4.29798 0.470839 5.59867 0.022464 7.04074C-0.0462061 7.25887 0.0467005 7.49316 0.244632 7.60626L1.96542 8.59996C1.79173 9.5371 1.79173 10.4985 1.96542 11.4356L0.244632 12.4293C0.0467005 12.5424 -0.0421667 12.7767 0.022464 12.9948C0.470839 14.4329 1.23429 15.7336 2.23203 16.8161C2.38552 16.9817 2.63597 17.0221 2.82986 16.909L4.55065 15.9153C5.27371 16.5374 6.10583 17.0181 7.00662 17.3332V19.3206C7.00662 19.5468 7.16416 19.7447 7.38632 19.7932C8.86879 20.1244 10.3876 20.1083 11.7974 19.7932C12.0195 19.7447 12.1771 19.5468 12.1771 19.3206V17.3332C13.0738 17.0141 13.9059 16.5334 14.633 15.9153L16.3538 16.909C16.5518 17.0221 16.7982 16.9858 16.9517 16.8161C17.9494 15.7376 18.7129 14.4369 19.1612 12.9948C19.2218 12.7727 19.1329 12.5384 18.935 12.4253ZM9.58781 13.2453C7.80642 13.2453 6.35627 11.7951 6.35627 10.0138C6.35627 8.23237 7.80642 6.78222 9.58781 6.78222C11.3692 6.78222 12.8193 8.23237 12.8193 10.0138C12.8193 11.7951 11.3692 13.2453 9.58781 13.2453Z" fill="white"/>
</svg>
