<svg width="12" height="20" viewBox="0 0 12 20" fill="none" xmlns="http://www.w3.org/2000/svg">
<path d="M3.09142 11.6551C3.09142 8.82283 7.12756 6.95385 7.12756 3.86446C7.12756 2.05688 5.82186 0.487247 5.62601 0.395142C5.64137 0.521787 5.64905 0.65227 5.64905 0.778916C5.64905 4.31348 0 6.6852 0 11.0871C0 12.9983 1.23657 14.1266 2.55378 15.2434C5.05381 17.0356 5.55304 17.9835 5.55304 18.5669C5.55304 18.9545 5.36871 19.2193 5.36871 19.4227C5.87179 18.7818 6.03692 18.1984 6.04076 17.642C6.04076 16.506 5.20742 15.4813 4.34335 14.3223C3.72891 13.4665 3.09142 12.6874 3.09142 11.6551ZM10.9755 10.1584C10.5108 7.59475 7.9801 5.38421 7.33877 5.13475L7.49238 5.41107C7.58455 5.6068 7.62295 5.82939 7.62295 6.06733C7.62295 7.7828 5.54152 10.3349 5.44935 10.546C5.36487 10.7417 5.32647 10.9489 5.32647 11.1523C5.32647 11.9237 5.91019 12.768 6.01388 12.768C6.10604 12.768 8.18747 10.6419 8.24508 9.40233C8.49086 9.85134 8.59454 10.2697 8.59454 10.6841C8.59454 12.2653 6.98931 14.4029 6.98931 14.4029C6.98931 14.8481 8.21435 16.4446 8.3526 16.4446C8.39101 16.4446 8.43709 16.3909 8.47549 16.3525C9.93096 14.8442 11.06 13.0904 11.06 11.1024C11.06 10.7954 11.0331 10.4807 10.9755 10.1584Z" fill="#FFC000"/>
</svg>
