<svg width="12" height="20" viewBox="0 0 12 20" fill="none" xmlns="http://www.w3.org/2000/svg">
<path d="M3.09142 11.8694C3.09142 9.03718 7.12756 7.1682 7.12756 4.07882C7.12756 2.27124 5.82186 0.701603 5.62601 0.609497C5.64137 0.736143 5.64905 0.866626 5.64905 0.993271C5.64905 4.52783 0 6.89956 0 11.3015C0 13.2126 1.23657 14.3409 2.55378 15.4577C5.05381 17.25 5.55304 18.1979 5.55304 18.7812C5.55304 19.1688 5.36871 19.4336 5.36871 19.637C5.87179 18.9961 6.03692 18.4128 6.04076 17.8563C6.04076 16.7203 5.20742 15.6957 4.34335 14.5367C3.72891 13.6809 3.09142 12.9018 3.09142 11.8694ZM10.9755 10.3727C10.5108 7.8091 7.9801 5.59856 7.33877 5.34911L7.49238 5.62543C7.58455 5.82115 7.62295 6.04374 7.62295 6.28168C7.62295 7.99715 5.54152 10.5493 5.44935 10.7603C5.36487 10.9561 5.32647 11.1633 5.32647 11.3667C5.32647 12.1381 5.91019 12.9824 6.01388 12.9824C6.10604 12.9824 8.18747 10.8563 8.24508 9.61668C8.49086 10.0657 8.59454 10.484 8.59454 10.8985C8.59454 12.4796 6.98931 14.6173 6.98931 14.6173C6.98931 15.0624 8.21435 16.6589 8.3526 16.6589C8.39101 16.6589 8.43709 16.6052 8.47549 16.5668C9.93096 15.0586 11.06 13.3048 11.06 11.3168C11.06 11.0098 11.0331 10.6951 10.9755 10.3727Z" fill="#3A2C02"/>
</svg>
