<svg width="25" height="25" viewBox="0 0 25 25" fill="none" xmlns="http://www.w3.org/2000/svg">
<path d="M12.5054 12.0098C11.8584 12.0098 11.3335 12.5342 11.3335 13.1816C11.3892 16.7095 10.9361 20.1103 9.98099 23.5112C9.84769 23.9858 10.086 25 11.1099 25C11.6216 25 12.0918 24.6621 12.2373 24.1445C12.898 21.8052 13.753 18.021 13.6768 13.1816C13.6773 12.5347 13.1529 12.0098 12.5054 12.0098ZM12.4634 8.01904C9.4722 8.01562 7.3848 10.3174 7.4263 12.9551C7.46292 15.2959 7.24319 17.6382 6.77347 19.9155C6.64212 20.5493 7.05032 21.1699 7.68362 21.3003C8.32083 21.4307 8.93704 21.0239 9.06839 20.3901C9.57327 17.9443 9.80911 15.4302 9.77005 12.9185C9.75003 11.6514 10.7427 10.3555 12.4287 10.3628C13.9575 10.3857 15.2193 11.6001 15.2422 13.0713C15.2798 15.4175 15.105 17.7749 14.7242 20.0806C14.6182 20.7183 15.0508 21.3218 15.689 21.4272C16.6641 21.5898 16.9981 20.6899 17.0357 20.4619C17.44 18.019 17.6245 15.52 17.586 13.0347C17.543 10.3101 15.2451 8.06006 12.4634 8.01904ZM7.05862 7.05322C6.55569 6.64599 5.81985 6.72119 5.41019 7.22314C4.15921 8.76123 3.48685 10.7036 3.5181 12.6919C3.5469 14.5269 3.39749 16.3672 3.07327 18.1631C2.95901 18.8003 3.38138 19.4097 4.01858 19.5249C5.00052 19.6958 5.34036 18.8018 5.3804 18.5796C5.73147 16.6343 5.8931 14.6411 5.86185 12.6553C5.8389 11.1963 6.31106 9.8291 7.22903 8.70166C7.63675 8.1997 7.56058 7.46191 7.05862 7.05322ZM12.4038 4.00976C11.6514 3.98974 10.8965 4.08007 10.1685 4.25244C9.53909 4.40185 9.14944 5.03271 9.29788 5.66308C9.44729 6.29248 10.0791 6.68017 10.7085 6.53369C11.2481 6.40625 11.8057 6.34961 12.3687 6.35351C16.0518 6.40869 19.0938 9.35644 19.1499 12.9248C19.1787 14.7744 19.0874 16.6411 18.8775 18.4731C18.8042 19.1162 19.2657 19.6978 19.9082 19.771C20.7246 19.8662 21.1538 19.1909 21.2061 18.7402C21.428 16.7978 21.524 14.843 21.4937 12.8882C21.4175 8.0664 17.3399 4.083 12.4038 4.00976ZM24.7119 9.93994C24.5723 9.30908 23.9546 8.90478 23.315 9.04785C22.6831 9.1875 22.2837 9.8125 22.4234 10.4448C22.6533 11.4902 22.6631 12.2715 22.6529 13.4526C22.6475 14.1006 23.168 14.6289 23.815 14.6343H23.8247C24.4678 14.6343 24.9912 14.1162 24.9966 13.4722C25.0054 12.3892 25.0161 11.3184 24.7119 9.93994ZM22.753 5.51025C20.375 2.12207 16.4839 0.0629851 12.3438 0.000973344C8.93606 -0.0400423 5.78421 1.21631 3.43997 3.56152C1.17581 5.82861 -0.0444043 8.83984 0.00637696 12.0435L0.00051758 13.0918C-0.0185254 13.7388 0.490264 14.2788 1.13724 14.2974C1.14847 14.2983 1.16067 14.2983 1.17239 14.2983C1.80325 14.2983 2.32425 13.7954 2.3428 13.1606L2.35062 12.0063C2.31009 9.44287 3.28616 7.03271 5.09866 5.21923C6.99124 3.3247 9.55862 2.30566 12.3096 2.34521C15.7007 2.3955 18.8882 4.08154 20.836 6.85644C21.2076 7.38672 21.9375 7.51318 22.4678 7.14258C22.9971 6.7705 23.125 6.03955 22.753 5.51025Z" fill="#929292"/>
</svg>
