<svg width="22" height="25" viewBox="0 0 22 25" fill="none" xmlns="http://www.w3.org/2000/svg">
<path d="M4.46451 23.6322C4.44952 22.85 5.1046 22.2099 5.88687 22.2099H8.92852V21.9309H2.78282C2.00055 21.9309 1.34547 21.2907 1.36046 20.5085C1.37496 19.7505 1.99386 19.1406 2.75523 19.1406H8.92852V18.8616H1.42262C0.64034 18.8616 -0.014738 18.2214 0.000252277 17.4393C0.0147542 16.6814 0.6337 16.0715 1.39508 16.0715H8.92857V15.7925H2.81768C2.03541 15.7925 1.38033 15.1523 1.39532 14.3702C1.40982 13.6123 2.02877 13.0023 2.79014 13.0023H11.0209L9.50308 11.8985C8.87994 11.4454 8.7422 10.5729 9.19537 9.94971C9.64854 9.32661 10.5211 9.18887 11.1442 9.64199L17.1677 14.0226C17.3812 14.1779 17.555 14.3815 17.6748 14.6168C17.7947 14.8521 17.8571 15.1125 17.8571 15.3765V22.2679C17.8571 23.0448 17.3227 23.7196 16.5665 23.8975L12.6372 24.822C12.1345 24.9403 11.6199 25 11.1035 25H5.85933C5.09796 25 4.47901 24.3901 4.46451 23.6322ZM8.04112 12.6116H9.81959L9.27335 12.2144C8.36617 11.5546 8.2815 10.2179 9.11856 9.45381L8.4836 8.63838C8.00299 8.02114 7.09542 7.89761 6.48751 8.38994C5.8984 8.86704 5.79742 9.73013 6.26519 10.3309L8.04112 12.6116ZM21.874 12.5089L21.6297 5.06499C21.6045 4.29492 20.9597 3.69116 20.1897 3.71641C19.4195 3.7417 18.8158 4.38643 18.8411 5.1565L18.9027 7.03223L13.8459 0.538038C13.3781 -0.0626946 12.5167 -0.176318 11.9097 0.277882C11.2834 0.746583 11.1808 1.65679 11.6614 2.27402L15.4157 7.09556L15.1956 7.26699L10.5671 1.32295C10.0994 0.722218 9.2379 0.608595 8.63097 1.06279C8.00465 1.53149 7.90201 2.4417 8.38263 3.05894L12.9941 8.9812L12.7739 9.15264L8.98121 4.28184C8.51344 3.6811 7.65196 3.56748 7.04503 4.02168C6.41871 4.49038 6.31607 5.40059 6.79669 6.01782L9.33834 9.28193C9.94854 8.87876 10.757 8.87739 11.374 9.32607L17.3974 13.7066C17.9298 14.0938 18.2478 14.7181 18.2478 15.3765V16.2065L21.2294 13.8848C21.4377 13.7225 21.6048 13.5133 21.7168 13.2742C21.8288 13.0351 21.8827 12.7729 21.874 12.5089Z" fill="#929292"/>
</svg>
