<svg width="10" height="12" viewBox="0 0 10 12" fill="none" xmlns="http://www.w3.org/2000/svg">
<path d="M0.705714 10.2329C0.705714 10.5136 0.817242 10.7829 1.01576 10.9814C1.21428 11.1799 1.48354 11.2914 1.76429 11.2914H8.11571C8.39647 11.2914 8.66572 11.1799 8.86424 10.9814C9.06276 10.7829 9.17429 10.5136 9.17429 10.2329V2.82286H0.705714V10.2329ZM6.70429 4.58715C6.70429 4.49356 6.74146 4.40381 6.80763 4.33764C6.87381 4.27147 6.96356 4.23429 7.05714 4.23429C7.15073 4.23429 7.24048 4.27147 7.30665 4.33764C7.37282 4.40381 7.41 4.49356 7.41 4.58715V9.52715C7.41 9.62073 7.37282 9.71048 7.30665 9.77666C7.24048 9.84283 7.15073 9.88001 7.05714 9.88001C6.96356 9.88001 6.87381 9.84283 6.80763 9.77666C6.74146 9.71048 6.70429 9.62073 6.70429 9.52715V4.58715ZM4.58714 4.58715C4.58714 4.49356 4.62432 4.40381 4.69049 4.33764C4.75667 4.27147 4.84642 4.23429 4.94 4.23429C5.03358 4.23429 5.12333 4.27147 5.18951 4.33764C5.25568 4.40381 5.29286 4.49356 5.29286 4.58715V9.52715C5.29286 9.62073 5.25568 9.71048 5.18951 9.77666C5.12333 9.84283 5.03358 9.88001 4.94 9.88001C4.84642 9.88001 4.75667 9.84283 4.69049 9.77666C4.62432 9.71048 4.58714 9.62073 4.58714 9.52715V4.58715ZM2.47 4.58715C2.47 4.49356 2.50718 4.40381 2.57335 4.33764C2.63952 4.27147 2.72927 4.23429 2.82286 4.23429C2.91644 4.23429 3.00619 4.27147 3.07236 4.33764C3.13854 4.40381 3.17571 4.49356 3.17571 4.58715V9.52715C3.17571 9.62073 3.13854 9.71048 3.07236 9.77666C3.00619 9.84283 2.91644 9.88001 2.82286 9.88001C2.72927 9.88001 2.63952 9.84283 2.57335 9.77666C2.50718 9.71048 2.47 9.62073 2.47 9.52715V4.58715ZM9.52714 0.705718H6.88071L6.67341 0.293316C6.6295 0.205149 6.56185 0.130985 6.47809 0.079167C6.39432 0.027349 6.29776 -6.67774e-05 6.19926 3.86659e-06H3.67854C3.58026 -0.000373923 3.48387 0.0269397 3.4004 0.0788153C3.31693 0.130691 3.24976 0.20503 3.20659 0.293316L2.99929 0.705718H0.352857C0.259274 0.705718 0.169523 0.742894 0.103349 0.809068C0.0371759 0.875241 0 0.964992 0 1.05858L0 1.76429C0 1.85787 0.0371759 1.94762 0.103349 2.0138C0.169523 2.07997 0.259274 2.11715 0.352857 2.11715H9.52714C9.62073 2.11715 9.71048 2.07997 9.77665 2.0138C9.84282 1.94762 9.88 1.85787 9.88 1.76429V1.05858C9.88 0.964992 9.84282 0.875241 9.77665 0.809068C9.71048 0.742894 9.62073 0.705718 9.52714 0.705718Z" fill="black"/>
</svg>
