<svg width="11" height="11" viewBox="0 0 11 11" fill="none" xmlns="http://www.w3.org/2000/svg">
<path d="M11 5.5C11 8.53757 8.53757 11 5.5 11C2.46243 11 0 8.53757 0 5.5C0 2.46243 2.46243 0 5.5 0C8.53757 0 11 2.46243 11 5.5ZM4.86382 8.41221L8.94446 4.33156C9.08303 4.193 9.08303 3.96832 8.94446 3.82975L8.44266 3.32794C8.30409 3.18936 8.07941 3.18936 7.94082 3.32794L4.6129 6.65584L3.05918 5.10211C2.92061 4.96355 2.69593 4.96355 2.55734 5.10211L2.05554 5.60392C1.91697 5.74249 1.91697 5.96717 2.05554 6.10573L4.36199 8.41218C4.50057 8.55077 4.72523 8.55077 4.86382 8.41221Z" fill="black"/>
</svg>
