<svg width="19" height="16" viewBox="0 0 19 16" fill="none" xmlns="http://www.w3.org/2000/svg">
<path d="M18.05 0H4.75C4.49804 0 4.25641 0.100089 4.07825 0.278249C3.90009 0.456408 3.8 0.698044 3.8 0.95V3.8H8.55V1.9H14.25V11.4H18.05C18.302 11.4 18.5436 11.2999 18.7218 11.1218C18.8999 10.9436 19 10.702 19 10.45V0.95C19 0.698044 18.8999 0.456408 18.7218 0.278249C18.5436 0.100089 18.302 0 18.05 0ZM6.8875 3.05781C6.8875 3.12868 6.85935 3.19664 6.80924 3.24674C6.75914 3.29685 6.69117 3.325 6.62031 3.325H5.72969C5.65882 3.325 5.59086 3.29685 5.54076 3.24674C5.49065 3.19664 5.4625 3.12868 5.4625 3.05781V2.16719C5.4625 2.09633 5.49065 2.02837 5.54076 1.97826C5.59086 1.92815 5.65882 1.9 5.72969 1.9H6.62031C6.69117 1.9 6.75914 1.92815 6.80924 1.97826C6.85935 2.02837 6.8875 2.09633 6.8875 2.16719V3.05781ZM17.3375 9.23281C17.3375 9.30368 17.3093 9.37164 17.2592 9.42174C17.2091 9.47185 17.1412 9.5 17.0703 9.5H16.1797C16.1088 9.5 16.0409 9.47185 15.9908 9.42174C15.9406 9.37164 15.9125 9.30368 15.9125 9.23281V8.34219C15.9125 8.27133 15.9406 8.20337 15.9908 8.15326C16.0409 8.10315 16.1088 8.075 16.1797 8.075H17.0703C17.1412 8.075 17.2091 8.10315 17.2592 8.15326C17.3093 8.20337 17.3375 8.27133 17.3375 8.34219V9.23281ZM17.3375 6.14531C17.3375 6.21618 17.3093 6.28414 17.2592 6.33424C17.2091 6.38435 17.1412 6.4125 17.0703 6.4125H16.1797C16.1088 6.4125 16.0409 6.38435 15.9908 6.33424C15.9406 6.28414 15.9125 6.21618 15.9125 6.14531V5.25469C15.9125 5.18383 15.9406 5.11587 15.9908 5.06576C16.0409 5.01565 16.1088 4.9875 16.1797 4.9875H17.0703C17.1412 4.9875 17.2091 5.01565 17.2592 5.06576C17.3093 5.11587 17.3375 5.18383 17.3375 5.25469V6.14531ZM17.3375 3.05781C17.3375 3.12868 17.3093 3.19664 17.2592 3.24674C17.2091 3.29685 17.1412 3.325 17.0703 3.325H16.1797C16.1088 3.325 16.0409 3.29685 15.9908 3.24674C15.9406 3.19664 15.9125 3.12868 15.9125 3.05781V2.16719C15.9125 2.09633 15.9406 2.02837 15.9908 1.97826C16.0409 1.92815 16.1088 1.9 16.1797 1.9H17.0703C17.1412 1.9 17.2091 1.92815 17.2592 1.97826C17.3093 2.02837 17.3375 2.09633 17.3375 2.16719V3.05781ZM12.35 4.75H0.95C0.698044 4.75 0.456408 4.85009 0.278249 5.02825C0.100089 5.20641 0 5.44805 0 5.7L0 14.25C0 14.502 0.100089 14.7436 0.278249 14.9218C0.456408 15.0999 0.698044 15.2 0.95 15.2H12.35C12.602 15.2 12.8436 15.0999 13.0218 14.9218C13.1999 14.7436 13.3 14.502 13.3 14.25V5.7C13.3 5.44805 13.1999 5.20641 13.0218 5.02825C12.8436 4.85009 12.602 4.75 12.35 4.75ZM2.85 6.65C3.03789 6.65 3.22156 6.70572 3.37779 6.81011C3.53402 6.91449 3.65578 7.06286 3.72769 7.23645C3.79959 7.41004 3.8184 7.60106 3.78175 7.78534C3.74509 7.96962 3.65461 8.13889 3.52175 8.27175C3.38889 8.40461 3.21962 8.49509 3.03534 8.53175C2.85105 8.5684 2.66004 8.54959 2.48645 8.47769C2.31286 8.40578 2.16449 8.28402 2.0601 8.12779C1.95572 7.97157 1.9 7.78789 1.9 7.6C1.9 7.34805 2.00009 7.10641 2.17825 6.92825C2.35641 6.75009 2.59804 6.65 2.85 6.65ZM11.4 13.3H1.9V12.35L3.8 10.45L4.75 11.4L8.55 7.6L11.4 10.45V13.3Z" fill="#929292"/>
</svg>
