<svg width="16" height="16" viewBox="0 0 16 16" fill="none" xmlns="http://www.w3.org/2000/svg">
<path d="M9.29702 7.99999L15.0654 2.23141C15.1529 2.14685 15.2228 2.0457 15.2708 1.93386C15.3188 1.82203 15.3441 1.70174 15.3452 1.58003C15.3462 1.45831 15.3231 1.33761 15.277 1.22495C15.2309 1.1123 15.1628 1.00995 15.0767 0.923881C14.9907 0.837812 14.8883 0.769747 14.7757 0.723656C14.663 0.677565 14.5423 0.654372 14.4206 0.65543C14.2989 0.656488 14.1786 0.681775 14.0668 0.729817C13.9549 0.777858 13.8538 0.847692 13.7692 0.935243L8.00063 6.7036L2.23227 0.935243C2.05974 0.766496 1.82762 0.672599 1.58628 0.673928C1.34495 0.675257 1.11387 0.771705 0.943205 0.942342C0.772538 1.11298 0.676049 1.34404 0.674677 1.58537C0.673306 1.8267 0.767162 2.05884 0.935878 2.23141L6.70446 7.99999L0.935878 13.7686C0.849201 13.8533 0.780202 13.9545 0.732876 14.0661C0.68555 14.1777 0.660838 14.2976 0.66017 14.4189C0.659502 14.5401 0.682893 14.6603 0.728986 14.7724C0.77508 14.8845 0.84296 14.9864 0.928699 15.0722C1.01444 15.1579 1.11633 15.2257 1.22848 15.2718C1.34062 15.3179 1.46079 15.3413 1.58203 15.3406C1.70327 15.3399 1.82317 15.3151 1.93479 15.2678C2.0464 15.2205 2.14752 15.1514 2.23227 15.0647L8.00063 9.29639L13.7692 15.0647C13.9482 15.2437 14.1829 15.3333 14.4173 15.3333C14.6517 15.3333 14.8866 15.2437 15.0654 15.0647C15.2372 14.8928 15.3338 14.6597 15.3338 14.4167C15.3338 14.1736 15.2372 13.9405 15.0654 13.7686L9.29702 7.99999Z" fill="white"/>
</svg>
