<svg width="16" height="21" viewBox="0 0 16 21" fill="none" xmlns="http://www.w3.org/2000/svg">
<path d="M13.7812 2.625H10.5C10.5 1.17715 9.32285 0 7.875 0C6.42715 0 5.25 1.17715 5.25 2.625H1.96875C0.881836 2.625 0 3.50684 0 4.59375V19.0312C0 20.1182 0.881836 21 1.96875 21H13.7812C14.8682 21 15.75 20.1182 15.75 19.0312V4.59375C15.75 3.50684 14.8682 2.625 13.7812 2.625ZM3.9375 17.3906C3.39199 17.3906 2.95312 16.9518 2.95312 16.4062C2.95312 15.8607 3.39199 15.4219 3.9375 15.4219C4.48301 15.4219 4.92188 15.8607 4.92188 16.4062C4.92188 16.9518 4.48301 17.3906 3.9375 17.3906ZM3.9375 13.4531C3.39199 13.4531 2.95312 13.0143 2.95312 12.4687C2.95312 11.9232 3.39199 11.4844 3.9375 11.4844C4.48301 11.4844 4.92188 11.9232 4.92188 12.4687C4.92188 13.0143 4.48301 13.4531 3.9375 13.4531ZM3.9375 9.51562C3.39199 9.51562 2.95312 9.07676 2.95312 8.53125C2.95312 7.98574 3.39199 7.54687 3.9375 7.54687C4.48301 7.54687 4.92188 7.98574 4.92188 8.53125C4.92188 9.07676 4.48301 9.51562 3.9375 9.51562ZM7.875 1.64062C8.42051 1.64062 8.85938 2.07949 8.85938 2.625C8.85938 3.17051 8.42051 3.60937 7.875 3.60937C7.32949 3.60937 6.89062 3.17051 6.89062 2.625C6.89062 2.07949 7.32949 1.64062 7.875 1.64062ZM13.125 16.7344C13.125 16.9148 12.9773 17.0625 12.7969 17.0625H6.89062C6.71016 17.0625 6.5625 16.9148 6.5625 16.7344V16.0781C6.5625 15.8977 6.71016 15.75 6.89062 15.75H12.7969C12.9773 15.75 13.125 15.8977 13.125 16.0781V16.7344ZM13.125 12.7969C13.125 12.9773 12.9773 13.125 12.7969 13.125H6.89062C6.71016 13.125 6.5625 12.9773 6.5625 12.7969V12.1406C6.5625 11.9602 6.71016 11.8125 6.89062 11.8125H12.7969C12.9773 11.8125 13.125 11.9602 13.125 12.1406V12.7969ZM13.125 8.85937C13.125 9.03984 12.9773 9.1875 12.7969 9.1875H6.89062C6.71016 9.1875 6.5625 9.03984 6.5625 8.85937V8.20312C6.5625 8.02266 6.71016 7.875 6.89062 7.875H12.7969C12.9773 7.875 13.125 8.02266 13.125 8.20312V8.85937Z" fill="white"/>
</svg>
