<svg width="18" height="18" viewBox="0 0 18 18" fill="none" xmlns="http://www.w3.org/2000/svg">
<path d="M17.2414 15.3257H0.638571C0.469212 15.3257 0.306789 15.393 0.187033 15.5127C0.0672779 15.6325 0 15.7949 0 15.9643L0 17.2414C0 17.4108 0.0672779 17.5732 0.187033 17.693C0.306789 17.8127 0.469212 17.88 0.638571 17.88H17.2414C17.4108 17.88 17.5732 17.8127 17.693 17.693C17.8127 17.5732 17.88 17.4108 17.88 17.2414V15.9643C17.88 15.7949 17.8127 15.6325 17.693 15.5127C17.5732 15.393 17.4108 15.3257 17.2414 15.3257ZM17.2414 10.2171H0.638571C0.469212 10.2171 0.306789 10.2844 0.187033 10.4042C0.0672779 10.5239 0 10.6864 0 10.8557L0 12.1329C0 12.3022 0.0672779 12.4646 0.187033 12.5844C0.306789 12.7042 0.469212 12.7714 0.638571 12.7714H17.2414C17.4108 12.7714 17.5732 12.7042 17.693 12.5844C17.8127 12.4646 17.88 12.3022 17.88 12.1329V10.8557C17.88 10.6864 17.8127 10.5239 17.693 10.4042C17.5732 10.2844 17.4108 10.2171 17.2414 10.2171ZM17.2414 5.10857H0.638571C0.469212 5.10857 0.306789 5.17585 0.187033 5.2956C0.0672779 5.41536 0 5.57778 0 5.74714L0 7.02429C0 7.19365 0.0672779 7.35607 0.187033 7.47582C0.306789 7.59558 0.469212 7.66286 0.638571 7.66286H17.2414C17.4108 7.66286 17.5732 7.59558 17.693 7.47582C17.8127 7.35607 17.88 7.19365 17.88 7.02429V5.74714C17.88 5.57778 17.8127 5.41536 17.693 5.2956C17.5732 5.17585 17.4108 5.10857 17.2414 5.10857ZM17.2414 0H0.638571C0.469212 0 0.306789 0.0672778 0.187033 0.187033C0.0672779 0.306789 0 0.469212 0 0.638571L0 1.91571C0 2.08507 0.0672779 2.2475 0.187033 2.36725C0.306789 2.48701 0.469212 2.55429 0.638571 2.55429H17.2414C17.4108 2.55429 17.5732 2.48701 17.693 2.36725C17.8127 2.2475 17.88 2.08507 17.88 1.91571V0.638571C17.88 0.469212 17.8127 0.306789 17.693 0.187033C17.5732 0.0672778 17.4108 0 17.2414 0Z" fill="#FFC000"/>
</svg>
