<svg width="18" height="21" viewBox="0 0 18 21" fill="none" xmlns="http://www.w3.org/2000/svg">
<path d="M8.94 20.4342C10.3496 20.4342 11.4931 19.2908 11.4931 17.8799H6.38692C6.38692 19.2908 7.53036 20.4342 8.94 20.4342ZM17.5363 14.4592C16.7653 13.6307 15.3225 12.3843 15.3225 8.3014C15.3225 5.20035 13.1482 2.71791 10.2163 2.10888V1.27714C10.2163 0.571919 9.64482 0 8.94 0C8.23518 0 7.66366 0.571919 7.66366 1.27714V2.10888C4.73183 2.71791 2.5575 5.20035 2.5575 8.3014C2.5575 12.3843 1.11473 13.6307 0.343658 14.4592C0.104194 14.7166 -0.00196794 15.0243 2.75937e-05 15.3257C0.00441776 15.9802 0.518067 16.6028 1.28116 16.6028H16.5988C17.3619 16.6028 17.876 15.9802 17.88 15.3257C17.882 15.0243 17.7758 14.7162 17.5363 14.4592Z" fill="#FFC000"/>
</svg>
