<svg width="19" height="20" viewBox="0 0 19 20" fill="none" xmlns="http://www.w3.org/2000/svg">
<path d="M18.7416 16.4295L15.0415 12.7294C14.8745 12.5624 14.6481 12.4697 14.4106 12.4697H13.8057C14.83 11.1596 15.4386 9.51183 15.4386 7.71932C15.4386 3.45514 11.9835 0 7.71932 0C3.45514 0 0 3.45514 0 7.71932C0 11.9835 3.45514 15.4386 7.71932 15.4386C9.51183 15.4386 11.1596 14.83 12.4697 13.8057V14.4106C12.4697 14.6481 12.5624 14.8745 12.7294 15.0415L16.4295 18.7416C16.7784 19.0905 17.3425 19.0905 17.6876 18.7416L18.7379 17.6913C19.0867 17.3425 19.0867 16.7784 18.7416 16.4295ZM7.71932 12.4697C5.09549 12.4697 2.96897 10.3469 2.96897 7.71932C2.96897 5.09549 5.09178 2.96897 7.71932 2.96897C10.3431 2.96897 12.4697 5.09178 12.4697 7.71932C12.4697 10.3431 10.3469 12.4697 7.71932 12.4697Z" fill="white"/>
</svg>
