<svg width="16" height="16" viewBox="0 0 16 16" fill="none" xmlns="http://www.w3.org/2000/svg">
<path d="M7.99992 11.9151C6.10368 11.9151 4.56868 10.2148 4.42743 8.06009L1.80494 5.71221C1.46019 6.21324 1.14294 6.74294 0.886943 7.32216C0.829754 7.45321 0.799957 7.598 0.799957 7.74485C0.799957 7.8917 0.829754 8.03649 0.886943 8.16754C2.24269 11.2319 4.92668 13.3053 7.99992 13.3053C8.67267 13.3053 9.32167 13.1894 9.94717 13.0023L8.64992 11.8395C8.43568 11.8875 8.21812 11.9128 7.99992 11.9151ZM15.8454 13.5978L13.0817 11.1233C13.9212 10.3037 14.6117 9.29885 15.1129 8.16725C15.1701 8.0362 15.1999 7.89141 15.1999 7.74456C15.1999 7.59771 15.1701 7.45292 15.1129 7.32187C13.7572 4.25749 11.0732 2.18416 7.99992 2.18416C6.7128 2.18597 5.44658 2.56134 4.31693 3.27599L1.13644 0.428242C1.09497 0.390855 1.04754 0.363302 0.996871 0.347158C0.946201 0.331013 0.893282 0.326593 0.841137 0.334151C0.788992 0.341709 0.738644 0.361095 0.692969 0.391204C0.647295 0.421312 0.607189 0.461551 0.574944 0.509623L0.0841957 1.24147C0.0190955 1.33849 -0.0100755 1.46148 0.00309852 1.58341C0.0162725 1.70534 0.0707126 1.81622 0.154445 1.89165L14.8634 15.0612C14.9049 15.0986 14.9523 15.1261 15.003 15.1423C15.0536 15.1584 15.1066 15.1628 15.1587 15.1553C15.2109 15.1477 15.2612 15.1283 15.3069 15.0982C15.3525 15.0681 15.3927 15.0279 15.4249 14.9798L15.9159 14.2479C15.981 14.1509 16.0101 14.0279 15.9969 13.9059C15.9837 13.784 15.9292 13.6732 15.8454 13.5978ZM11.2524 9.48527L10.2699 8.60543C10.3527 8.32841 10.3965 8.03782 10.3999 7.74471C10.4048 7.31558 10.3227 6.8911 10.1603 6.50538C9.99789 6.11966 9.75964 5.78344 9.46471 5.52374C9.16977 5.26403 8.82637 5.08807 8.46209 5.01C8.0978 4.93193 7.72279 4.95391 7.36717 5.07419C7.51793 5.31084 7.59947 5.59708 7.59992 5.89119C7.59619 5.98906 7.58328 6.08617 7.56142 6.1808L5.72118 4.5332C6.36042 3.91436 7.16686 3.57501 7.99992 3.5743C8.47275 3.57399 8.941 3.68165 9.37789 3.89113C9.81478 4.1006 10.2117 4.40778 10.5461 4.7951C10.8804 5.18242 11.1456 5.64228 11.3264 6.1484C11.5072 6.65451 11.6002 7.19695 11.5999 7.74471C11.5999 8.37114 11.4677 8.95499 11.2524 9.48556V9.48527Z" fill="#656667"/>
</svg>
