<?xml version="1.0" encoding="UTF-8"?>
<svg xmlns="http://www.w3.org/2000/svg" xmlns:xlink="http://www.w3.org/1999/xlink" width="16px" height="16px" viewBox="0 0 16 16" version="1.1">
<g id="surface1">
<path style=" stroke:none;fill-rule:evenodd;fill:rgb(101, 102, 103);fill-opacity:1;" d="M 8 2.667969 C 6.097656 2.667969 4.503906 3.597656 3.332031 4.605469 C 2.15625 5.613281 1.339844 6.757812 0.976562 7.3125 C 0.703125 7.730469 0.703125 8.269531 0.976562 8.6875 C 1.339844 9.242188 2.15625 10.386719 3.332031 11.394531 C 4.503906 12.402344 6.097656 13.332031 8 13.332031 C 9.902344 13.332031 11.496094 12.402344 12.667969 11.394531 C 13.84375 10.386719 14.660156 9.242188 15.023438 8.6875 C 15.296875 8.269531 15.296875 7.730469 15.023438 7.3125 C 14.660156 6.757812 13.84375 5.613281 12.667969 4.605469 C 11.496094 3.597656 9.902344 2.667969 8 2.667969 Z M 6.332031 8 C 6.332031 7.078125 7.078125 6.332031 8 6.332031 C 8.921875 6.332031 9.667969 7.078125 9.667969 8 C 9.667969 8.921875 8.921875 9.667969 8 9.667969 C 7.078125 9.667969 6.332031 8.921875 6.332031 8 Z M 8 5 C 6.34375 5 5 6.34375 5 8 C 5 9.65625 6.34375 11 8 11 C 9.65625 11 11 9.65625 11 8 C 11 6.34375 9.65625 5 8 5 Z M 8 5 "/>
</g>
</svg>
