<svg width="9" height="10" viewBox="0 0 9 10" fill="none" xmlns="http://www.w3.org/2000/svg">
<path d="M0.514648 8.28571C0.514648 8.75893 0.900822 9.14286 1.3768 9.14286H7.69928C8.17526 9.14286 8.56143 8.75893 8.56143 8.28571V3.42857H0.514648V8.28571ZM6.26235 4.78571C6.26235 4.66786 6.35934 4.57143 6.47789 4.57143H7.19635C7.3149 4.57143 7.41189 4.66786 7.41189 4.78571V5.5C7.41189 5.61786 7.3149 5.71429 7.19635 5.71429H6.47789C6.35934 5.71429 6.26235 5.61786 6.26235 5.5V4.78571ZM6.26235 7.07143C6.26235 6.95357 6.35934 6.85714 6.47789 6.85714H7.19635C7.3149 6.85714 7.41189 6.95357 7.41189 7.07143V7.78571C7.41189 7.90357 7.3149 8 7.19635 8H6.47789C6.35934 8 6.26235 7.90357 6.26235 7.78571V7.07143ZM3.96327 4.78571C3.96327 4.66786 4.06026 4.57143 4.17881 4.57143H4.89727C5.01582 4.57143 5.11281 4.66786 5.11281 4.78571V5.5C5.11281 5.61786 5.01582 5.71429 4.89727 5.71429H4.17881C4.06026 5.71429 3.96327 5.61786 3.96327 5.5V4.78571ZM3.96327 7.07143C3.96327 6.95357 4.06026 6.85714 4.17881 6.85714H4.89727C5.01582 6.85714 5.11281 6.95357 5.11281 7.07143V7.78571C5.11281 7.90357 5.01582 8 4.89727 8H4.17881C4.06026 8 3.96327 7.90357 3.96327 7.78571V7.07143ZM1.66419 4.78571C1.66419 4.66786 1.76118 4.57143 1.87973 4.57143H2.59819C2.71674 4.57143 2.81373 4.66786 2.81373 4.78571V5.5C2.81373 5.61786 2.71674 5.71429 2.59819 5.71429H1.87973C1.76118 5.71429 1.66419 5.61786 1.66419 5.5V4.78571ZM1.66419 7.07143C1.66419 6.95357 1.76118 6.85714 1.87973 6.85714H2.59819C2.71674 6.85714 2.81373 6.95357 2.81373 7.07143V7.78571C2.81373 7.90357 2.71674 8 2.59819 8H1.87973C1.76118 8 1.66419 7.90357 1.66419 7.78571V7.07143ZM7.69928 1.14286H6.83712V0.285714C6.83712 0.128571 6.7078 0 6.54974 0H5.97497C5.8169 0 5.68758 0.128571 5.68758 0.285714V1.14286H3.3885V0.285714C3.3885 0.128571 3.25918 0 3.10111 0H2.52634C2.36828 0 2.23896 0.128571 2.23896 0.285714V1.14286H1.3768C0.900822 1.14286 0.514648 1.52679 0.514648 2V2.85714H8.56143V2C8.56143 1.52679 8.17526 1.14286 7.69928 1.14286Z" fill="#929292"/>
</svg>
