<svg width="11" height="11" viewBox="0 0 11 11" fill="none" xmlns="http://www.w3.org/2000/svg">
<path d="M5.11 0C2.28714 0 0 2.28714 0 5.11C0 7.93286 2.28714 10.22 5.11 10.22C7.93286 10.22 10.22 7.93286 10.22 5.11C10.22 2.28714 7.93286 0 5.11 0ZM6.28654 7.21375L4.46919 5.89298C4.40531 5.84559 4.36823 5.77142 4.36823 5.69312V2.22532C4.36823 2.08933 4.47949 1.97806 4.61548 1.97806H5.60452C5.74051 1.97806 5.85177 2.08933 5.85177 2.22532V5.06261L7.16018 6.01455C7.27145 6.09491 7.29411 6.24945 7.21375 6.36071L6.6327 7.16018C6.55234 7.26939 6.3978 7.29411 6.28654 7.21375Z" fill="#929292"/>
</svg>
