<svg width="10" height="9" viewBox="0 0 10 9" fill="none" xmlns="http://www.w3.org/2000/svg">
<path d="M6.98958 1.44271L8.55556 3.00868C8.62153 3.07465 8.62153 3.18229 8.55556 3.24826L4.76389 7.03993L3.15278 7.21875C2.9375 7.24306 2.75521 7.06076 2.77951 6.84549L2.95833 5.23438L6.75 1.44271C6.81597 1.37674 6.92361 1.37674 6.98958 1.44271ZM9.80208 1.04514L8.95486 0.197917C8.69097 -0.0659722 8.26215 -0.0659722 7.99653 0.197917L7.38195 0.8125C7.31597 0.878472 7.31597 0.986111 7.38195 1.05208L8.94792 2.61806C9.01389 2.68403 9.12153 2.68403 9.1875 2.61806L9.80208 2.00347C10.066 1.73785 10.066 1.30903 9.80208 1.04514ZM6.66667 6.00868V7.77604H1.11111V2.22049H5.10069C5.15625 2.22049 5.20833 2.19792 5.24826 2.15972L5.94271 1.46528C6.07465 1.33333 5.9809 1.10938 5.79514 1.10938H0.833333C0.373264 1.10938 0 1.48264 0 1.94271V8.05382C0 8.51389 0.373264 8.88715 0.833333 8.88715H6.94444C7.40451 8.88715 7.77778 8.51389 7.77778 8.05382V5.31424C7.77778 5.12847 7.55382 5.03646 7.42188 5.16667L6.72743 5.86111C6.68924 5.90104 6.66667 5.95313 6.66667 6.00868Z" fill="#929292"/>
</svg>
