<svg width="10" height="8" viewBox="0 0 10 8" fill="none" xmlns="http://www.w3.org/2000/svg">
<path d="M9.81055 2.47656C9.88672 2.41602 10 2.47266 10 2.56836V6.5625C10 7.08008 9.58008 7.5 9.0625 7.5H0.9375C0.419922 7.5 0 7.08008 0 6.5625V2.57031C0 2.47266 0.111328 2.41797 0.189453 2.47852C0.626953 2.81836 1.20703 3.25 3.19922 4.69727C3.61133 4.99805 4.30664 5.63086 5 5.62695C5.69727 5.63281 6.40625 4.98633 6.80273 4.69727C8.79492 3.25 9.37305 2.81641 9.81055 2.47656ZM5 5C5.45312 5.00781 6.10547 4.42969 6.43359 4.19141C9.02539 2.31055 9.22266 2.14648 9.82031 1.67773C9.93359 1.58984 10 1.45312 10 1.30859V0.9375C10 0.419922 9.58008 0 9.0625 0H0.9375C0.419922 0 0 0.419922 0 0.9375V1.30859C0 1.45312 0.0664062 1.58789 0.179688 1.67773C0.777344 2.14453 0.97461 2.31055 3.56641 4.19141C3.89453 4.42969 4.54688 5.00781 5 5Z" fill="#929292"/>
</svg>
