<svg width="10" height="10" viewBox="0 0 10 10" fill="none" xmlns="http://www.w3.org/2000/svg">
<path d="M5.01109 0C2.1879 0 0 2.06331 0 4.8502C0 6.30786 0.598992 7.56754 1.57399 8.4377C1.74234 8.58911 1.70766 8.67682 1.73629 9.61169C1.73854 9.67718 1.75679 9.74112 1.78943 9.79793C1.82206 9.85475 1.86811 9.90271 1.92354 9.93765C1.97898 9.97258 2.04211 9.99342 2.10745 9.99835C2.17279 10.0033 2.23834 9.99215 2.29839 9.96593C3.36512 9.49617 3.37883 9.45907 3.55968 9.50827C6.6502 10.3589 10 8.38105 10 4.8502C10 2.06331 7.83448 0 5.01109 0ZM8.01996 3.73246L6.54819 6.0625C6.49261 6.15012 6.41953 6.22531 6.33354 6.28337C6.24754 6.34142 6.15049 6.38109 6.04844 6.39989C5.9464 6.41868 5.84158 6.4162 5.74055 6.39259C5.63951 6.36899 5.54444 6.32477 5.46129 6.2627L4.29032 5.38629C4.23798 5.34703 4.17431 5.32581 4.10887 5.32581C4.04344 5.32581 3.97977 5.34703 3.92742 5.38629L2.34738 6.58468C2.13649 6.74456 1.86028 6.49194 2.00242 6.26875L3.47419 3.93871C3.52975 3.85107 3.60282 3.77585 3.68881 3.71778C3.7748 3.65971 3.87187 3.62003 3.97392 3.60123C4.07597 3.58243 4.1808 3.58492 4.28184 3.60855C4.38288 3.63217 4.47795 3.67642 4.56109 3.73851L5.73165 4.61472C5.784 4.65398 5.84767 4.6752 5.91311 4.6752C5.97854 4.6752 6.04221 4.65398 6.09456 4.61472L7.6754 3.41754C7.88589 3.25665 8.1621 3.50907 8.01996 3.73246Z" fill="#929292"/>
</svg>
