<svg width="11" height="11" viewBox="0 0 11 11" fill="none" xmlns="http://www.w3.org/2000/svg">
<path d="M10.6971 3.05146L9.70658 4.04194C9.6056 4.14292 9.44231 4.14292 9.34133 4.04194L6.95645 1.65706C6.85547 1.55608 6.85547 1.39279 6.95645 1.29181L7.94693 0.301332C8.34871 -0.100444 9.00186 -0.100444 9.40579 0.301332L10.6971 1.5926C11.101 1.99438 11.101 2.64754 10.6971 3.05146ZM6.10563 2.14263L0.463575 7.78469L0.00808505 10.3952C-0.0542225 10.7475 0.253018 11.0526 0.605378 10.9925L3.21585 10.5348L8.85791 4.89276C8.95889 4.79178 8.95889 4.62849 8.85791 4.52751L6.47303 2.14263C6.3699 2.04165 6.20661 2.04165 6.10563 2.14263ZM2.66583 7.30127C2.54766 7.1831 2.54766 6.99403 2.66583 6.87586L5.97457 3.56711C6.09274 3.44894 6.28181 3.44894 6.39998 3.56711C6.51815 3.68528 6.51815 3.87435 6.39998 3.99252L3.09124 7.30127C2.97307 7.41944 2.78399 7.41944 2.66583 7.30127ZM1.8902 9.10819H2.9215V9.88811L1.53569 10.1309L0.8675 9.4627L1.11028 8.07689H1.8902V9.10819Z" fill="#929292"/>
</svg>
